<svg xmlns="http://www.w3.org/2000/svg" version="1.1" xmlns:xlink="http://www.w3.org/1999/xlink" xmlns:svgjs="http://svgjs.dev/svgjs" width="1500" height="1500" viewBox="0 0 1500 1500"><g transform="matrix(1,0,0,1,-2.122340425531661,-2.122340425531661)"><svg viewBox="0 0 141 141" data-background-color="#ffffff" preserveAspectRatio="xMidYMid meet" height="1500" width="1500" xmlns="http://www.w3.org/2000/svg" xmlns:xlink="http://www.w3.org/1999/xlink"><g id="tight-bounds" transform="matrix(1,0,0,1,0.19949999999997203,0.19949999999997203)"><svg viewBox="0 0 140.60052000000002 140.60052000000002" height="140.60052000000002" width="140.60052000000002"><g><svg viewBox="0 0 140.60052000000002 140.60052000000002" height="140.60052000000002" width="140.60052000000002"><g><svg viewBox="0 0 140.60052000000002 140.60052000000002" height="140.60052000000002" width="140.60052000000002"><g><path d="M0 140.601v-140.601h140.601v140.601z" fill="#4d7e3e" stroke="transparent" stroke-width="0" rx="0%" data-fill-palette-color="tertiary"></path><path d="M3.283 137.317v-134.034h134.034v134.034z" fill="#ffffff" stroke="transparent" stroke-width="0" rx="0%" data-fill-palette-color="quaternary"></path><path d="M9.85 130.751v-120.901h120.901v120.901z" fill="#4d7e3e" stroke="transparent" stroke-width="0" data-fill-palette-color="tertiary"></path></g><g transform="matrix(1,0,0,1,19.69974,19.69974)" id="textblocktransform"><svg viewBox="0 0 101.20104000000002 101.20104000000002" height="101.20104000000002" width="101.20104000000002" id="textblock"><g><svg viewBox="0 0 101.20104000000002 101.20104000000002" height="101.20104000000002" width="101.20104000000002"><g transform="matrix(1,0,0,1,0,0)"><svg width="101.20104000000002" viewBox="0 -50 43.75 43.75" height="101.20104000000002" data-palette-color="#ffffff"><path d="M37.5-6.25L6.25-6.25 6.25-12.5 0-12.5 0-18.75 12.5-18.75 12.5-12.5 31.25-12.5 31.25-25 6.25-25 6.25-31.25 0-31.25 0-43.75 6.25-43.75 6.25-50 37.5-50 37.5-43.75 43.75-43.75 43.75-37.5 31.25-37.5 31.25-43.75 12.5-43.75 12.5-31.25 37.5-31.25 37.5-25 43.75-25 43.75-12.5 37.5-12.5 37.5-6.25Z" opacity="1" transform="matrix(1,0,0,1,0,0)" fill="#ffffff" class="wordmark-text-0" data-fill-palette-color="quaternary" id="text-0"></path></svg></g></svg></g></svg></g></svg></g><g></g></svg></g><defs></defs></svg><rect width="140.60052000000002" height="140.60052000000002" fill="none" stroke="none" visibility="hidden"></rect></g></svg></g></svg>